
  <svg xmlns="http://www.w3.org/2000/svg" width="1600" height="1200" viewBox="0 0 1600 1200">
    
    <defs>
      <linearGradient id="wallGrad" x1="0" y1="0" x2="0" y2="1">
        <stop offset="0%" stop-color="#ffffff"/>
        <stop offset="100%" stop-color="#eef2f7"/>
      </linearGradient>
      <linearGradient id="deskGrad" x1="0" y1="0" x2="1" y2="0">
        <stop offset="0%" stop-color="#f8fafc"/>
        <stop offset="100%" stop-color="#e5e7eb"/>
      </linearGradient>
      <linearGradient id="deviceGrad" x1="0" y1="0" x2="1" y2="1">
        <stop offset="0%" stop-color="#fdfdfd"/>
        <stop offset="100%" stop-color="#d8dbe2"/>
      </linearGradient>
      <linearGradient id="gloveGrad" x1="0" y1="0" x2="1" y2="1">
        <stop offset="0%" stop-color="#111827"/>
        <stop offset="100%" stop-color="#030712"/>
      </linearGradient>
      <linearGradient id="accentPanel" x1="0" y1="0" x2="1" y2="1">
        <stop offset="0%" stop-color="#a855f7"/>
        <stop offset="100%" stop-color="#7e22ce"/>
      </linearGradient>
      <filter id="shadow" x="-20%" y="-20%" width="140%" height="160%">
        <feDropShadow dx="0" dy="18" stdDeviation="24" flood-color="#000000" flood-opacity="0.18"/>
      </filter>
      <filter id="softShadow" x="-20%" y="-20%" width="140%" height="160%">
        <feDropShadow dx="0" dy="10" stdDeviation="12" flood-color="#000000" flood-opacity="0.12"/>
      </filter>
    </defs>

    <rect width="1600" height="1200" fill="url(#wallGrad)"/>
    <rect x="0" y="760" width="1600" height="440" fill="#f8fafc"/>
    <rect x="0" y="790" width="1600" height="410" fill="url(#deskGrad)"/>

    <ellipse cx="220" cy="58" rx="120" ry="40" fill="#ffffff" opacity="0.95"/>
    <ellipse cx="510" cy="44" rx="130" ry="44" fill="#ffffff" opacity="0.96"/>
    <ellipse cx="805" cy="42" rx="136" ry="46" fill="#ffffff" opacity="0.97"/>
    <ellipse cx="1100" cy="46" rx="132" ry="46" fill="#ffffff" opacity="0.96"/>
    <ellipse cx="1385" cy="60" rx="120" ry="40" fill="#ffffff" opacity="0.95"/>

    <rect x="0" y="0" width="1600" height="760" fill="url(#wallGrad)"/>
    <rect x="70" y="470" width="520" height="290" rx="16" fill="#ffffff" filter="url(#softShadow)"/>
    <rect x="1005" y="480" width="505" height="270" rx="16" fill="#ffffff" filter="url(#softShadow)"/>

    <rect x="50" y="780" width="1500" height="40" rx="20" fill="#ffffff"/>
    <rect x="80" y="812" width="1440" height="320" rx="18" fill="#f3f4f6"/>
    <rect x="115" y="834" width="420" height="250" rx="16" fill="#ffffff"/>
    <rect x="560" y="834" width="470" height="250" rx="16" fill="#ffffff"/>
    <rect x="1058" y="834" width="400" height="250" rx="16" fill="#ffffff"/>

    <circle cx="138" cy="637" r="62" fill="#111827"/>
    <rect x="132" y="360" width="14" height="285" rx="7" fill="#111827"/>
    <rect x="146" y="384" width="135" height="14" rx="7" fill="#111827" transform="rotate(-40 146 384)"/>
    <circle cx="278" cy="268" r="47" fill="none" stroke="#111827" stroke-width="12"/>
    <rect x="223" y="620" width="138" height="80" rx="10" fill="#d1d5db"/>
    <circle cx="260" cy="660" r="18" fill="#b51217"/>
    <circle cx="310" cy="660" r="18" fill="#3b82f6"/>

    <rect x="1180" y="180" width="300" height="430" rx="14" fill="#ffffff"/>
    <rect x="1210" y="230" width="76" height="10" rx="5" fill="#d1d5db"/>
    <rect x="1210" y="280" width="76" height="10" rx="5" fill="#d1d5db"/>
    <rect x="1210" y="330" width="76" height="10" rx="5" fill="#d1d5db"/>
    <rect x="1210" y="380" width="76" height="10" rx="5" fill="#d1d5db"/>
    <rect x="1210" y="430" width="76" height="10" rx="5" fill="#d1d5db"/>
    <rect x="1210" y="480" width="76" height="10" rx="5" fill="#d1d5db"/>
    <rect x="1325" y="245" width="16" height="110" rx="8" fill="#111827"/>
    <rect x="1365" y="245" width="16" height="110" rx="8" fill="#111827"/>
    <rect x="1405" y="245" width="16" height="110" rx="8" fill="#111827"/>
    <rect x="1445" y="245" width="16" height="110" rx="8" fill="#111827"/>
    <rect x="1250" y="525" width="210" height="58" rx="10" fill="#e5e7eb"/>

    
    <g transform="translate(590 126) scale(1)">
      <g transform="translate(0 0)">
        <path d="M55 10 C82 10 101 34 101 59 C101 86 83 108 55 133 C27 108 9 86 9 59 C9 34 28 10 55 10 Z" fill="#b51217"/>
        <path d="M28 57 C28 38 40 24 55 18 C48 31 46 48 46 86 C38 78 28 66 28 57 Z" fill="#ffffff" opacity="0.98"/>
        <path d="M45 18 C58 28 60 43 60 88 C55 94 55 94 50 88 C50 42 48 28 45 18 Z" fill="#ffffff" opacity="0.98"/>
        <path d="M61 18 C73 28 77 42 77 79 C73 84 70 88 66 91 C66 42 64 27 61 18 Z" fill="#ffffff" opacity="0.98"/>
        <path d="M77 24 C86 31 92 43 92 57 C92 67 84 79 71 92 C77 57 79 36 77 24 Z" fill="#ffffff" opacity="0.98"/>
        <rect x="45" y="134" width="20" height="21" rx="2" fill="#b51217"/>
        <path d="M52 133 L50 118 L60 118 L58 133 Z" fill="#b51217"/>
      </g>
      <text x="130" y="68" font-family="Arial, Helvetica, sans-serif" font-size="38" font-weight="800" fill="#b51217" letter-spacing="1.5">BALAO DA</text>
      <text x="130" y="112" font-family="Arial, Helvetica, sans-serif" font-size="38" font-weight="800" fill="#b51217" letter-spacing="1.5">INFORMATICA</text>
    </g>
  
  
    
    <g transform="translate(470 310) rotate(-6)" filter="url(#shadow)">
      <path d="M-90 690 C-10 660 115 640 220 690 C240 725 235 770 205 796 C115 830 8 828 -70 790 C-93 760 -102 726 -90 690 Z" fill="url(#gloveGrad)"/>
      <rect x="0" y="0" width="610" height="720" rx="34" fill="url(#deviceGrad)" stroke="#cbd5e1" stroke-width="3"/>
      <rect x="22" y="24" width="566" height="672" rx="26" fill="none" stroke="#ffffff" stroke-opacity="0.5" stroke-width="2"/>
      <rect x="28" y="28" width="108" height="96" rx="20" fill="#334155"/>
      <circle cx="60" cy="56" r="10" fill="#0f172a"/><circle cx="60" cy="56" r="4" fill="#93c5fd" opacity="0.9"/><circle cx="92" cy="56" r="10" fill="#0f172a"/><circle cx="92" cy="56" r="4" fill="#93c5fd" opacity="0.9"/>
      <rect x="256.2" y="324" width="97.60000000000001" height="115.2" rx="48.800000000000004" fill="#111827"/>
      <path d="M335.5 273.6 C353.79999999999995 259.2, 366 237.60000000000002, 347.7 216 C323.3 223.2, 317.2 251.99999999999997, 335.5 273.6 Z" fill="#111827"/>
      <text x="305" y="638" text-anchor="middle" font-family="Arial, Helvetica, sans-serif" font-size="26" fill="#6b7280" letter-spacing="1">iMac</text>
      <rect x="256.2" y="674" width="10" height="10" rx="5" fill="#cbd5e1"/>
      <rect x="286.7" y="674" width="10" height="10" rx="5" fill="#cbd5e1"/>
      <rect x="317.2" y="674" width="10" height="10" rx="5" fill="#cbd5e1"/>
      <path d="M61 590.4 C122 633.6, 183 698.4, 109.8 780 C30.5 772, -12.200000000000001 662.4, 61 590.4 Z" fill="url(#gloveGrad)"/>
      <rect x="-54" y="738" width="694" height="18" rx="9" fill="#a855f7" opacity="0.15"/>
      <rect x="-54" y="766" width="439.2" height="12" rx="6" fill="#7e22ce" opacity="0.18"/>
    </g>
  
    
    <g transform="translate(980 862)" filter="url(#softShadow)">
      <rect x="0" y="0" width="470" height="220" rx="28" fill="#ffffff"/>
      <rect x="34" y="32" width="150" height="38" rx="19" fill="url(#accentPanel)"/>
      <text x="109" y="57" text-anchor="middle" font-family="Arial, Helvetica, sans-serif" font-size="18" font-weight="700" fill="#ffffff">All in one</text>
      <text x="34" y="112" font-family="Arial, Helvetica, sans-serif" font-size="34" font-weight="800" fill="#0f172a">iMac com performance</text>
      <text x="34" y="154" font-family="Arial, Helvetica, sans-serif" font-size="22" fill="#4b5563">Tela, SSD e placa logica</text>
      <rect x="34" y="178" width="180" height="10" rx="5" fill="#a855f7" opacity="0.22"/>
      <rect x="34" y="196" width="134" height="10" rx="5" fill="#7e22ce" opacity="0.16"/>
    </g>
  
  </svg>