<svg xmlns="http://www.w3.org/2000/svg" viewBox="0 0 512 512">
  <defs>
    <linearGradient id="bg" x1="0" y1="0" x2="1" y2="1">
      <stop offset="0" stop-color="#0b1220"/>
      <stop offset="1" stop-color="#111111"/>
    </linearGradient>
    <linearGradient id="accent" x1="0" y1="0" x2="1" y2="0">
      <stop offset="0" stop-color="#d71920"/>
      <stop offset="1" stop-color="#ff6b6f"/>
    </linearGradient>
  </defs>
  <rect x="88" y="88" width="336" height="336" rx="40" fill="url(#bg)"/>
  <rect x="146" y="146" width="220" height="220" rx="28" fill="#0b0b0b" stroke="#ffffff" stroke-opacity="0.10" stroke-width="2"/>
  <rect x="176" y="176" width="160" height="160" rx="18" fill="#111111" stroke="#ffffff" stroke-opacity="0.12" stroke-width="2"/>
  <rect x="190" y="206" width="132" height="18" rx="9" fill="url(#accent)" opacity="0.9"/>
  <rect x="190" y="238" width="92" height="12" rx="6" fill="#ffffff" fill-opacity="0.10"/>
  <rect x="190" y="262" width="112" height="12" rx="6" fill="#ffffff" fill-opacity="0.10"/>
  <rect x="190" y="286" width="76" height="12" rx="6" fill="#ffffff" fill-opacity="0.10"/>
  <g fill="#111111" fill-opacity="0.10">
    <rect x="56" y="188" width="32" height="22" rx="8"/>
    <rect x="56" y="238" width="32" height="22" rx="8"/>
    <rect x="56" y="288" width="32" height="22" rx="8"/>
    <rect x="56" y="338" width="32" height="22" rx="8"/>
    <rect x="424" y="188" width="32" height="22" rx="8"/>
    <rect x="424" y="238" width="32" height="22" rx="8"/>
    <rect x="424" y="288" width="32" height="22" rx="8"/>
    <rect x="424" y="338" width="32" height="22" rx="8"/>
  </g>
</svg>

