<svg xmlns="http://www.w3.org/2000/svg" viewBox="0 0 512 512">
  <defs>
    <linearGradient id="bg" x1="0" y1="0" x2="1" y2="1">
      <stop offset="0" stop-color="#ffffff"/>
      <stop offset="1" stop-color="#f5f5f5"/>
    </linearGradient>
    <linearGradient id="accent" x1="0" y1="0" x2="1" y2="0">
      <stop offset="0" stop-color="#d71920"/>
      <stop offset="1" stop-color="#ff6b6f"/>
    </linearGradient>
  </defs>
  <rect x="32" y="48" width="448" height="416" rx="36" fill="url(#bg)" stroke="#111111" stroke-opacity="0.08" stroke-width="2"/>
  <rect x="80" y="104" width="352" height="272" rx="22" fill="#ffffff" stroke="#111111" stroke-opacity="0.10" stroke-width="2"/>
  <rect x="104" y="130" width="304" height="12" rx="6" fill="url(#accent)" opacity="0.9"/>
  <rect x="104" y="156" width="304" height="196" rx="16" fill="#ffffff" stroke="#111111" stroke-opacity="0.08" stroke-width="2"/>
  <path d="M132 188h248" stroke="#111111" stroke-opacity="0.10" stroke-width="2"/>
  <path d="M132 216h248" stroke="#111111" stroke-opacity="0.10" stroke-width="2"/>
  <path d="M132 244h248" stroke="#111111" stroke-opacity="0.10" stroke-width="2"/>
  <path d="M132 272h248" stroke="#111111" stroke-opacity="0.10" stroke-width="2"/>
  <path d="M132 300h248" stroke="#111111" stroke-opacity="0.10" stroke-width="2"/>
  <rect x="140" y="206" width="110" height="90" rx="12" fill="#d71920" fill-opacity="0.10" stroke="#d71920" stroke-opacity="0.35" stroke-width="2"/>
  <rect x="268" y="206" width="120" height="64" rx="12" fill="#111111" fill-opacity="0.04" stroke="#111111" stroke-opacity="0.08" stroke-width="2"/>
  <rect x="268" y="284" width="120" height="32" rx="12" fill="#111111" fill-opacity="0.04" stroke="#111111" stroke-opacity="0.08" stroke-width="2"/>
  <rect x="156" y="398" width="200" height="18" rx="9" fill="#111111" fill-opacity="0.08"/>
  <rect x="206" y="386" width="100" height="12" rx="6" fill="url(#accent)" opacity="0.9"/>
</svg>

