<svg xmlns="http://www.w3.org/2000/svg" viewBox="0 0 512 512">
  <defs>
    <linearGradient id="bg" x1="0" y1="0" x2="1" y2="1">
      <stop offset="0" stop-color="#0b0b0b"/>
      <stop offset="1" stop-color="#111111"/>
    </linearGradient>
    <linearGradient id="accent" x1="0" y1="0" x2="1" y2="0">
      <stop offset="0" stop-color="#d71920"/>
      <stop offset="1" stop-color="#ff6b6f"/>
    </linearGradient>
  </defs>
  <rect x="32" y="48" width="448" height="416" rx="36" fill="url(#bg)"/>
  <rect x="76" y="108" width="360" height="256" rx="22" fill="#0f0f0f" stroke="#ffffff" stroke-opacity="0.10" stroke-width="2"/>
  <rect x="76" y="108" width="360" height="38" rx="22" fill="#0b0b0b" stroke="#ffffff" stroke-opacity="0.10" stroke-width="2"/>
  <circle cx="106" cy="127" r="6" fill="#ff6b6f"/>
  <circle cx="126" cy="127" r="6" fill="#fbbf24"/>
  <circle cx="146" cy="127" r="6" fill="#16a34a"/>
  <rect x="104" y="172" width="140" height="12" rx="6" fill="url(#accent)" opacity="0.9"/>
  <rect x="104" y="198" width="260" height="12" rx="6" fill="#ffffff" fill-opacity="0.10"/>
  <rect x="104" y="224" width="220" height="12" rx="6" fill="#ffffff" fill-opacity="0.10"/>
  <rect x="104" y="250" width="280" height="12" rx="6" fill="#ffffff" fill-opacity="0.10"/>
  <rect x="104" y="276" width="200" height="12" rx="6" fill="#ffffff" fill-opacity="0.10"/>
  <rect x="104" y="302" width="170" height="12" rx="6" fill="#ffffff" fill-opacity="0.10"/>
  <path d="M190 402h132" stroke="#ffffff" stroke-opacity="0.14" stroke-width="14" stroke-linecap="round"/>
  <path d="M216 416h80" stroke="url(#accent)" stroke-width="10" stroke-linecap="round"/>
</svg>

